HIERARCHY
ROOT Hips
{
	OFFSET 0.00000 0.00000 0.00000
	CHANNELS 6 Xposition Yposition Zposition Zrotation Yrotation Xrotation 
	JOINT LHipJoint
	{
		OFFSET 0 0 0
		CHANNELS 3 Zrotation Yrotation Xrotation
		JOINT LeftHip
		{
			OFFSET 1.61024 -1.73873 0.75100
			CHANNELS 3 Zrotation Yrotation Xrotation
			JOINT LeftKnee
			{
				OFFSET 2.29819 -6.31424 0.00000
				CHANNELS 3 Zrotation Yrotation Xrotation
				JOINT LeftAnkle
				{
					OFFSET 2.76618 -7.60002 0.00000
					CHANNELS 3 Zrotation Yrotation Xrotation
					JOINT LeftToe
					{
						OFFSET 0.16838 -0.46263 2.02361
						CHANNELS 3 Zrotation Yrotation Xrotation
						End Site
						{
							OFFSET 0.00000 -0.00000 1.04662
						}
					}
				}
			}
		}
	}
	JOINT RHipJoint
	{
		OFFSET 0 0 0
		CHANNELS 3 Zrotation Yrotation Xrotation
		JOINT RightHip
		{
			OFFSET -1.46153 -1.73873 0.75100
			CHANNELS 3 Zrotation Yrotation Xrotation
			JOINT RightKnee
			{
				OFFSET -2.38373 -6.54924 0.00000
				CHANNELS 3 Zrotation Yrotation Xrotation
				JOINT RightAnkle
				{
					OFFSET -2.80314 -7.70157 0.00000
					CHANNELS 3 Zrotation Yrotation Xrotation
					JOINT RightToe
					{
						OFFSET -0.16142 -0.44349 2.02101
						CHANNELS 3 Zrotation Yrotation Xrotation
						End Site
						{
							OFFSET -0.00000 -0.00000 1.04381
						}
					}
				}
			}
		}
	}
	JOINT lowerback
	{
		OFFSET 0 0 0
		CHANNELS 3 Zrotation Yrotation Xrotation
		JOINT Chest
		{
			OFFSET -0.01629 1.66985 0.14750
			CHANNELS 3 Zrotation Yrotation Xrotation
			JOINT Chest2
			{
				OFFSET 0.02086 1.62378 0.20980
				CHANNELS 3 Zrotation Yrotation Xrotation
				JOINT lowerneck
				{
					OFFSET 0 0 0
					CHANNELS 3 Zrotation Yrotation Xrotation
					JOINT Neck
					{
						OFFSET -0.05690 1.78719 0.08702
						CHANNELS 3 Zrotation Yrotation Xrotation
						JOINT Head
						{
							OFFSET 0.16035 1.73871 -0.38470
							CHANNELS 3 Zrotation Yrotation Xrotation
							End Site
							{
								OFFSET 0.05645 1.80914 -0.14081
							}
						}
					}
				}
				JOINT LeftCollar
				{
					OFFSET 0 0 0
					CHANNELS 3 Zrotation Yrotation Xrotation
					JOINT LeftShoulder
					{
						OFFSET 2.83089 1.66494 -0.46008
CHANNELS 3 Zrotation Xrotation Yrotation
						JOINT LeftElbow
						{
OFFSET 0 -5.548930 -0.000000
CHANNELS 3 Zrotation Xrotation Yrotation
							JOINT LeftWrist
							{
OFFSET 0 -3.028980 -0.000000
CHANNELS 3 Zrotation Xrotation Yrotation
								JOINT lhand
								{
									OFFSET 0 0 0
CHANNELS 3 Zrotation Xrotation Yrotation
									JOINT LFingers
									{
OFFSET 0 -0.640950 -0.000000
CHANNELS 3 Zrotation Xrotation Yrotation
										End Site
										{
OFFSET 0 -0.516750 -0.000000
										}
									}
								}
								JOINT LThumb
								{
OFFSET 0 0.000000 0.000000
CHANNELS 3 Zrotation Xrotation Yrotation
									End Site
									{
OFFSET 0 -0.524640 0.524640
									}
								}
							}
						}
					}
				}
				JOINT RightCollar
				{
					OFFSET 0 0 0
					CHANNELS 3 Zrotation Yrotation Xrotation
					JOINT RightShoulder
					{
						OFFSET -2.84442 1.45761 -0.18088
CHANNELS 3 Zrotation Xrotation Yrotation
						JOINT RightElbow
						{
OFFSET 0 -5.351900 -0.000000
CHANNELS 3 Zrotation Xrotation Yrotation
							JOINT RightWrist
							{
OFFSET 0 -3.025310 -0.000000
CHANNELS 3 Zrotation Xrotation Yrotation
								JOINT rhand
								{
									OFFSET 0 0 0
CHANNELS 3 Zrotation Xrotation Yrotation
									JOINT RFingers
									{
OFFSET 0 -0.783890 -0.000000
CHANNELS 3 Zrotation Xrotation Yrotation
										End Site
										{
OFFSET 0 -0.631990 -0.000000
										}
									}
								}
								JOINT RThumb
								{
OFFSET 0 0.000000 0.000000
CHANNELS 3 Zrotation Xrotation Yrotation
									End Site
									{
OFFSET 0 -0.641640 0.641640
									}
								}
							}
						}
					}
				}
			}
		}
	}
}
MOTION
Frames: 7
Frame Time: 0.008333333333333333
-1.105361 17.590291 2.202353 -188.215900 93.914175 -154.528027 0.000000 0.000000 0.000000 0.604062 -12.781232 -46.820865 2.335607 9.532650 27.476252 -1.299814 19.720532 -8.533341 2.354874 -9.555640 -27.560029 0.000000 0.000000 0.000000 2.920795 23.504896 -49.692788 -2.308390 -9.480627 27.310863 -0.065619 -6.695415 -11.019265 -1.673845 8.150403 -23.172036 1.625512 -4.068063 14.386586 3.361485 -4.777120 0.171714 3.659491 -2.278886 -7.724040 0.033003 5.565144 -2.692899 -3.621931 7.458044 -0.273813 -1.014470 3.712119 0.504951 0.000000 0.000000 0.000000 -8.342259 -38.979247 -49.311633 143.601512 -45.785289 104.192565 3.831626 3.201215 -30.212342 0.000000 0.000000 0.000000 -7.125000 0.000000 0.000000 -30.193361 57.579228 9.899754 0.000000 0.000000 0.000000 -3.781215 -44.619529 31.431803 -149.766278 -41.092639 -108.436928 15.114255 26.708251 -0.911812 0.000000 0.000000 0.000000 7.125000 0.000000 0.000000 30.957913 28.020882 14.906468
-1.153510 17.375523 2.009720 -316.081451 92.883957 -282.378741 0.000000 0.000000 0.000000 3.763232 -16.286926 -46.669873 2.118415 9.108412 26.135070 -1.207561 19.716972 -13.131391 2.479394 -9.800039 -28.331965 0.000000 0.000000 0.000000 5.010782 21.293017 -52.114210 -3.164267 -10.955916 32.131889 -0.209956 -7.044799 -13.947411 -1.705196 8.223003 -23.393574 0.962586 -3.649397 14.385157 3.386184 -4.328884 0.673977 3.933522 -2.043602 -7.149327 -0.657150 5.550210 -2.696590 -1.372239 7.440206 -1.757227 -0.253323 3.737503 -0.067510 0.000000 0.000000 0.000000 -8.820913 -36.219822 -47.215131 141.247134 -47.313339 102.483095 -16.331436 2.349939 -33.056102 0.000000 0.000000 0.000000 -7.125000 0.000000 0.000000 -51.217451 55.569528 16.340525 0.000000 0.000000 0.000000 -3.310516 -43.766118 32.444785 -147.134057 -43.226491 -106.669722 21.466104 27.976367 -0.661591 0.000000 0.000000 0.000000 7.125000 0.000000 0.000000 34.973768 27.646621 18.131849
-1.218259 17.277422 1.758077 -350.398326 99.169294 -316.293092 0.000000 0.000000 0.000000 5.879723 -20.980001 -47.768866 1.862002 8.572454 24.466834 -1.177046 19.248325 -11.891411 3.235206 -11.066129 -32.503482 0.000000 0.000000 0.000000 4.257466 19.160489 -53.888856 -3.956346 -12.101700 36.093286 -0.111443 -10.162371 -16.136847 -1.889764 8.632388 -24.652195 0.305466 -3.132838 16.062508 3.321082 -3.707757 -0.022060 4.273279 -1.680621 -8.839383 -1.094400 4.413677 -2.581147 0.599739 5.951762 -1.662179 0.391056 2.997197 -0.135778 0.000000 0.000000 0.000000 -8.881954 -32.349074 -44.722777 140.440616 -47.806558 101.887840 -36.290660 1.140260 -35.042055 0.000000 0.000000 0.000000 -7.125000 0.000000 0.000000 -68.573768 52.770391 20.804687 0.000000 0.000000 0.000000 -2.084300 -40.038817 34.710263 -145.177327 -44.685008 -105.311441 30.890016 30.716749 -0.240381 0.000000 0.000000 0.000000 7.125000 0.000000 0.000000 40.034055 26.495606 24.210573
-1.169851 17.303690 1.523546 -360.066422 108.032160 -326.476481 0.000000 0.000000 0.000000 3.468438 -22.056325 -48.826953 1.583659 7.938739 22.528308 -0.438050 11.988160 -7.533946 3.524920 -11.499722 -33.984390 0.000000 0.000000 0.000000 3.052926 17.076269 -51.630022 -4.369133 -12.636017 38.020791 0.098668 -14.468515 -19.427728 -1.488883 7.708494 -21.832283 1.445016 -2.493541 16.300393 3.388626 -2.608268 -0.134129 3.466750 -1.186001 -9.217950 -2.769948 1.462865 -0.786003 3.190600 2.032985 -2.073049 1.444220 1.029147 -0.571152 0.000000 0.000000 0.000000 -8.647670 -30.548463 -41.182954 139.416732 -48.411690 101.125647 -38.101697 5.368002 -35.363389 0.000000 0.000000 0.000000 -7.125000 0.000000 0.000000 -70.150465 52.597467 21.445202 0.000000 0.000000 0.000000 -0.833064 -37.048920 36.115787 -144.558324 -45.124920 -104.874505 39.546459 31.342041 -0.026418 0.000000 0.000000 0.000000 7.125000 0.000000 0.000000 43.094714 23.938843 32.291542
-1.094598 17.386484 1.212569 -360.918641 114.444669 -329.175813 0.000000 0.000000 0.000000 1.789105 -24.068742 -46.542622 1.345026 7.342281 20.733579 -0.203860 8.267841 -5.358242 3.753208 -11.824542 -35.114085 0.000000 0.000000 0.000000 3.612747 15.862632 -46.932264 -4.358409 -12.622623 37.971735 0.442500 -18.002637 -21.205326 -1.106640 6.682451 -18.778482 2.583605 -1.404645 16.261513 3.880364 -0.866576 0.017008 2.930284 -0.373821 -9.119087 -3.430483 -1.452075 -0.455792 4.206832 -1.880738 -1.553009 1.893793 -0.936480 -0.327870 0.000000 0.000000 0.000000 -7.313623 -31.075577 -35.883789 140.863149 -47.550118 102.200327 -26.221059 12.355160 -39.244041 0.000000 0.000000 0.000000 -7.125000 0.000000 0.000000 -66.358715 57.218476 27.656230 0.000000 0.000000 0.000000 0.350783 -36.766939 40.203865 -144.180880 -45.388263 -104.606387 41.688209 28.904413 -1.580164 0.000000 0.000000 0.000000 7.125000 0.000000 0.000000 42.935734 21.388367 36.379977
-0.986483 17.469646 0.906547 -363.613938 118.453152 -332.631212 0.000000 0.000000 0.000000 -0.539758 -26.749587 -43.199161 0.984378 6.315156 17.701605 -0.169198 7.452625 -4.463353 3.546038 -11.530433 -34.090392 0.000000 0.000000 0.000000 2.761377 14.476307 -43.855589 -4.427792 -12.708966 38.288507 0.550496 -19.598296 -22.854799 -0.591620 4.924179 -13.692424 1.904357 -0.080318 14.722934 3.739431 0.675081 -0.340251 2.784304 0.384742 -8.684884 -4.586138 -4.327419 -0.195861 6.263722 -5.746412 -0.854425 2.753029 -2.874248 0.102671 0.000000 0.000000 0.000000 -5.640941 -34.481244 -30.656106 141.361148 -47.242434 102.566849 -20.073577 17.305098 -40.553026 0.000000 0.000000 0.000000 -7.125000 0.000000 0.000000 -63.236660 59.426313 28.991794 0.000000 0.000000 0.000000 1.556211 -37.362378 44.050017 -145.260297 -44.625318 -105.369851 39.940078 24.000351 -3.249634 0.000000 0.000000 0.000000 7.125000 0.000000 0.000000 42.003839 20.704701 35.724853
-0.859633 17.547093 0.623922 -363.819663 122.923259 -334.327309 0.000000 0.000000 0.000000 -2.848691 -27.870904 -39.696616 0.758096 5.560730 15.515062 -0.072473 4.932039 -3.145485 3.578191 -11.576923 -34.251242 0.000000 0.000000 0.000000 3.785225 12.592003 -39.790861 -4.239984 -12.473078 37.426799 0.759478 -21.305627 -23.861042 -0.298320 3.510749 -9.704226 2.191324 0.094777 13.583777 4.202418 0.974544 -0.613670 3.050754 0.537000 -8.351350 -5.698149 -6.141028 0.924491 7.663402 -8.237098 -0.392053 3.420112 -4.136944 0.318305 0.000000 0.000000 0.000000 -4.820697 -37.209920 -28.184618 142.106282 -46.771043 103.111839 -12.984038 23.726553 -40.283850 0.000000 0.000000 0.000000 -7.125000 0.000000 0.000000 -56.998808 61.077203 27.082447 0.000000 0.000000 0.000000 1.780544 -39.759745 46.690093 -145.853494 -44.192875 -105.784893 38.116657 19.201347 -4.767045 0.000000 0.000000 0.000000 7.125000 0.000000 0.000000 41.041906 20.116865 34.877499
